<svg xmlns="http://www.w3.org/2000/svg" xmlns:xlink="http://www.w3.org/1999/xlink" viewBox="0 0 491.48 152.99"><defs><style>.cls-1{fill:url(#New_Gradient_Swatch_1);}.cls-2{fill:url(#New_Gradient_Swatch_1-2);}.cls-3{fill:url(#New_Gradient_Swatch_1-3);}.cls-4{fill:url(#New_Gradient_Swatch_1-4);}.cls-5{fill:url(#New_Gradient_Swatch_1-5);}.cls-6{font-size:14px;fill:#315f2e;font-family:Montserrat-Italic, Montserrat;font-style:italic;letter-spacing:0.25em;}.cls-10,.cls-11,.cls-7{font-size:20px;}.cls-8{letter-spacing:0.25em;}.cls-9{letter-spacing:0.32em;}.cls-10{letter-spacing:0.03em;}.cls-11{letter-spacing:0.05em;}</style><linearGradient id="New_Gradient_Swatch_1" y1="53.74" x2="176.54" y2="53.74" gradientUnits="userSpaceOnUse"><stop offset="0" stop-color="#315f2e"/><stop offset="1" stop-color="#509a4a"/></linearGradient><linearGradient id="New_Gradient_Swatch_1-2" x1="179.74" y1="62.28" x2="247.17" y2="62.28" xlink:href="#New_Gradient_Swatch_1"/><linearGradient id="New_Gradient_Swatch_1-3" x1="268.58" y1="61.69" x2="320.78" y2="61.69" xlink:href="#New_Gradient_Swatch_1"/><linearGradient id="New_Gradient_Swatch_1-4" x1="342.5" y1="62.28" x2="409.93" y2="62.28" xlink:href="#New_Gradient_Swatch_1"/><linearGradient id="New_Gradient_Swatch_1-5" x1="279.56" y1="91.02" x2="491.48" y2="91.02" xlink:href="#New_Gradient_Swatch_1"/></defs><g id="Layer_2" data-name="Layer 2"><g id="Logo_V2_copy_3" data-name="Logo V2 copy 3"><path class="cls-1" d="M173.89,32c-9,5.53-45.15,37.57-49.81,64.37-2.91-14.27-15.14-17.77-21.55-23s-11.07-23-11.07-23S74.86,85.05,73.11,93.5a42.13,42.13,0,0,1-5.54,14,44.75,44.75,0,0,1-9.11-1.36c.21-.5.48-1.19.83-2.17C60.77,99.81,56,85.15,56,85.15L61,63.6,53.76,78.32l-3.45-9.94,2.22-14s-.39.89-4.64,7.37c-4.45-22.36-21-16.29-21-16.29A15.35,15.35,0,0,1,35,49c2.28,1.61,4.7,15,4.7,15L30,60.86,41.82,69,45.59,80.7,29,74.48,48,86.55l6.16,18.34C37.84,99.56,12.78,83.22,14.56,33.2,14.56,17.47,1.45,3.49,0,3.2c0,0,59.13-9.9,72.82,65.25,9.61-12.24,18.93-38.74,18.06-47.77,6.7,16.89,28,45.15,32.33,46,1.45-9,44-62.63,52.14-66.7C178.26,13.4,175.06,29.42,173.89,32Z"/><path class="cls-2" d="M195.86,54.48V70q0,11.56,5.66,18.46T218,95.17a19.61,19.61,0,0,1-3.77.26q-15.6,0-25-9.23t-9.43-23.92q0-14.18,8.91-23.53t23.85-9.62A14.32,14.32,0,0,0,200,36.67Q195.86,43.83,195.86,54.48Zm51.22,9H217.31q9.23-2.09,11.77-4.23c1.69-1.43,2.49-4,2.4-7.73q-.53-9.62-4.87-15.73a15.47,15.47,0,0,0-12.16-6.63q15.6.53,24.57,9.81T247.08,63.45Z"/><path class="cls-3" d="M291.28,68.91q-24-7.41-22.62-23.66a16,16,0,0,1,6.11-11.31q5.46-4.42,15.86-4.94c1.91-.09,3.77-.09,5.59,0q-16.91-.53-17.42,11.31-.65,4.55,3.77,8.12t14.17,6q25.74,8.19,23.92,24.18a17,17,0,0,1-7,12q-6.24,4.81-16.77,4.94c-1.3,0-3.08-.09-5.33-.26q8.83.78,13.46-2.86a12.16,12.16,0,0,0,4.87-9.36q.25-4.42-4.09-8T291.28,68.91ZM268.66,95.43V74.37a20.16,20.16,0,0,0,4.1,9.42,19.42,19.42,0,0,0,8.12,6.57,25.7,25.7,0,0,0-3.31-.85,10.19,10.19,0,0,0-3,.07,5.63,5.63,0,0,0-3.19,1.69A15.11,15.11,0,0,0,268.66,95.43Zm49.14-67.6v22a25.66,25.66,0,0,0-4-9.95,17.59,17.59,0,0,0-7.93-7,19.37,19.37,0,0,0,3.25.78,13.5,13.5,0,0,0,2.93-.07A5.26,5.26,0,0,0,315.2,32,13.24,13.24,0,0,0,317.8,27.83Z"/><path class="cls-4" d="M358.62,54.48V70q0,11.56,5.66,18.46t16.44,6.76a19.61,19.61,0,0,1-3.77.26q-15.6,0-25-9.23T342.5,62.28q0-14.18,8.91-23.53t23.85-9.62a14.32,14.32,0,0,0-12.54,7.54Q358.63,43.83,358.62,54.48Zm51.22,9H380.07q9.23-2.09,11.77-4.23c1.69-1.43,2.49-4,2.4-7.73q-.53-9.62-4.87-15.73a15.47,15.47,0,0,0-12.16-6.63q15.6.53,24.57,9.81T409.84,63.45Z"/><path class="cls-5" d="M491.45,80.75l0-.2,0,0V56.23q0-27.16-22.36-27.17c-6.33,0-18.49,2.59-25.09,7.77v-7H421.51a8.13,8.13,0,0,1,5.2,3c1,1.48,1.57,4,1.57,7.54V79.11q0,9.11-1.24,12c-.82,2-2.67,3.18-5.53,3.7h27.95a6.36,6.36,0,0,1-4.22-3Q444,89.65,444,83.92V39.59c4.57-2.47,11.47-5.38,16.78-5.72,11.79-.75,15.16,7,15.08,21.06,0,3.21,0,8-.07,14.5q-.06,6.9-.06,11.33s1,47.1-32,50.94C400.23,136.8,319.38,84,279.56,152.12c14.78,2.72,16.16-1.59,21.09-4.3s20.9-26.72,63.87-17.66,59.05,14.56,67.62,14c29.93-1.85,52-9.31,59.31-63.44h0Z"/><text class="cls-6" transform="translate(21.98 145.57)">essen<tspan class="cls-7" x="57.58" y="0">C</tspan><tspan x="76.96" y="0">ielle</tspan><tspan class="cls-8" x="122.67" y="0">m</tspan><tspan x="141.05" y="0">ent</tspan><tspan class="cls-9" x="175.17" y="0"> </tspan><tspan class="cls-10" x="183.32" y="0">V</tspan><tspan class="cls-11" x="197.86" y="0">OUS</tspan></text></g></g></svg>